<?xml version="1.0" encoding="UTF-8" standalone="no"?>
<!-- Generator: Adobe Illustrator 19.0.0, SVG Export Plug-In . SVG Version: 6.00 Build 0)  -->

<svg
   xmlns:dc="http://purl.org/dc/elements/1.1/"
   xmlns:cc="http://creativecommons.org/ns#"
   xmlns:rdf="http://www.w3.org/1999/02/22-rdf-syntax-ns#"
   xmlns:svg="http://www.w3.org/2000/svg"
   xmlns="http://www.w3.org/2000/svg"
   xmlns:sodipodi="http://sodipodi.sourceforge.net/DTD/sodipodi-0.dtd"
   xmlns:inkscape="http://www.inkscape.org/namespaces/inkscape"
   version="1.1"
   id="Capa_1"
   x="0px"
   y="0px"
   viewBox="0 0 359.952 359.952"
   style="enable-background:new 0 0 359.952 359.952;"
   xml:space="preserve"
   sodipodi:docname="stage.svg"
   inkscape:version="0.92.3 (2405546, 2018-03-11)"><metadata
   id="metadata79"><rdf:RDF><cc:Work
       rdf:about=""><dc:format>image/svg+xml</dc:format><dc:type
         rdf:resource="http://purl.org/dc/dcmitype/StillImage" /></cc:Work></rdf:RDF></metadata><defs
   id="defs77" /><sodipodi:namedview
   pagecolor="#ffffff"
   bordercolor="#666666"
   borderopacity="1"
   objecttolerance="10"
   gridtolerance="10"
   guidetolerance="10"
   inkscape:pageopacity="0"
   inkscape:pageshadow="2"
   inkscape:window-width="1280"
   inkscape:window-height="743"
   id="namedview75"
   showgrid="false"
   inkscape:zoom="0.65564298"
   inkscape:cx="179.976"
   inkscape:cy="179.976"
   inkscape:window-x="0"
   inkscape:window-y="0"
   inkscape:window-maximized="1"
   inkscape:current-layer="Capa_1" />
<g
   id="g6"
   style="fill:none;stroke:#000000;stroke-opacity:1;stroke-width:4;stroke-miterlimit:4;stroke-dasharray:none">
	<g
   id="g4"
   style="fill:none;stroke:#000000;stroke-opacity:1;stroke-width:4;stroke-miterlimit:4;stroke-dasharray:none">
		<path
   d="M349.416,99.952l-165.36-98.88c-2.475-1.429-5.525-1.429-8,0l-165.52,98.88c-2.43,1.44-3.919,4.055-3.92,6.88v24    c0,4.418,3.582,8,8,8h330.72c4.418,0,8-3.582,8-8v-24C353.335,104.007,351.846,101.392,349.416,99.952z M22.616,122.832v-11.68    l157.36-93.92l157.36,93.92l0,11.68H22.616z"
   id="path2"
   style="fill:none;stroke:#000000;stroke-opacity:1;stroke-width:4;stroke-miterlimit:4;stroke-dasharray:none" />
	</g>
</g>
<g
   id="g12"
   style="fill:#2a3d75;stroke:#000000;stroke-opacity:1;stroke-width:4;stroke-miterlimit:4;stroke-dasharray:none;fill-opacity:1">
	<g
   id="g10"
   style="fill:#2a3d75;stroke:#000000;stroke-opacity:1;stroke-width:4;stroke-miterlimit:4;stroke-dasharray:none;fill-opacity:1">
		<path
   d="M77.656,152.592h-39.36c-4.418,0-8,3.582-8,8v135.36c0,4.418,3.582,8,8,8h39.36c4.418,0,8-3.582,8-8v-135.36    C85.656,156.174,82.074,152.592,77.656,152.592z M69.656,287.952h-23.36v-119.36h23.36V287.952z"
   id="path8"
   style="fill:#2a3d75;stroke:#000000;stroke-opacity:1;stroke-width:4;stroke-miterlimit:4;stroke-dasharray:none;fill-opacity:1" />
	</g>
</g>
<g
   id="g18"
   style="fill:#2a3d75;stroke:#000000;stroke-opacity:1;stroke-width:4;stroke-miterlimit:4;stroke-dasharray:none;fill-opacity:1">
	<g
   id="g16"
   style="fill:#2a3d75;stroke:#000000;stroke-opacity:1;stroke-width:4;stroke-miterlimit:4;stroke-dasharray:none;fill-opacity:1">
		<path
   d="M199.656,152.592h-39.36c-4.418,0-8,3.582-8,8v135.36c0,4.418,3.582,8,8,8h39.36c4.418,0,8-3.582,8-8v-135.36    C207.656,156.174,204.074,152.592,199.656,152.592z M191.656,287.952h-23.36v-119.36h23.36V287.952z"
   id="path14"
   style="fill:#2a3d75;stroke:#000000;stroke-opacity:1;stroke-width:4;stroke-miterlimit:4;stroke-dasharray:none;fill-opacity:1" />
	</g>
</g>
<g
   id="g24"
   style="fill:#2a3d75;stroke:#000000;stroke-opacity:1;stroke-width:4;stroke-miterlimit:4;stroke-dasharray:none;fill-opacity:1">
	<g
   id="g22"
   style="fill:#2a3d75;stroke:#000000;stroke-opacity:1;stroke-width:4;stroke-miterlimit:4;stroke-dasharray:none;fill-opacity:1">
		<path
   d="M321.656,152.592h-39.36c-4.418,0-8,3.582-8,8v135.36c0,4.418,3.582,8,8,8h39.36c4.418,0,8-3.582,8-8v-135.36    C329.656,156.174,326.074,152.592,321.656,152.592z M313.656,287.952h-23.36v-119.36h23.36V287.952z"
   id="path20"
   style="fill:#2a3d75;stroke:#000000;stroke-opacity:1;stroke-width:4;stroke-miterlimit:4;stroke-dasharray:none;fill-opacity:1" />
	</g>
</g>
<g
   id="g30"
   style="fill:none;stroke:#000000;stroke-opacity:1;stroke-width:4;stroke-miterlimit:4;stroke-dasharray:none">
	<g
   id="g28"
   style="fill:none;stroke:#000000;stroke-opacity:1;stroke-width:4;stroke-miterlimit:4;stroke-dasharray:none">
		<path
   d="M179.976,47.952c-18.008,0.044-32.596,14.632-32.64,32.64c0,18.027,14.613,32.64,32.64,32.64    c18.027,0,32.64-14.613,32.64-32.64C212.616,62.565,198.003,47.952,179.976,47.952z M180.056,97.232    c-9.19,0-16.64-7.45-16.64-16.64c0-9.159,7.401-16.596,16.56-16.64c9.172,0.044,16.596,7.468,16.64,16.64h0.08    C196.696,89.782,189.246,97.232,180.056,97.232z"
   id="path26"
   style="fill:none;stroke:#000000;stroke-opacity:1;stroke-width:4;stroke-miterlimit:4;stroke-dasharray:none" />
	</g>
</g>
<g
   id="g36"
   style="fill:none;stroke:#000000;stroke-opacity:1;stroke-width:4;stroke-miterlimit:4;stroke-dasharray:none">
	<g
   id="g34"
   style="fill:none;stroke:#000000;stroke-opacity:1;stroke-width:4;stroke-miterlimit:4;stroke-dasharray:none">
		<path
   d="M326.616,317.312H33.336c-4.418,0-8,3.582-8,8s3.582,8,8,8h293.28c4.418,0,8-3.582,8-8S331.034,317.312,326.616,317.312z"
   id="path32"
   style="fill:none;stroke:#000000;stroke-opacity:1;stroke-width:4;stroke-miterlimit:4;stroke-dasharray:none" />
	</g>
</g>
<g
   id="g42"
   style="fill:none;stroke:#000000;stroke-opacity:1;stroke-width:4;stroke-miterlimit:4;stroke-dasharray:none">
	<g
   id="g40"
   style="fill:none;stroke:#000000;stroke-opacity:1;stroke-width:4;stroke-miterlimit:4;stroke-dasharray:none">
		<path
   d="M345.336,343.952H14.616c-4.418,0-8,3.582-8,8s3.582,8,8,8h330.72c4.418,0,8-3.582,8-8S349.754,343.952,345.336,343.952z"
   id="path38"
   style="fill:none;stroke:#000000;stroke-opacity:1;stroke-width:4;stroke-miterlimit:4;stroke-dasharray:none" />
	</g>
</g>
<g
   id="g44"
   style="fill:none;stroke:#000000;stroke-opacity:1;stroke-width:4;stroke-miterlimit:4;stroke-dasharray:none">
</g>
<g
   id="g46"
   style="fill:none;stroke:#000000;stroke-opacity:1;stroke-width:4;stroke-miterlimit:4;stroke-dasharray:none">
</g>
<g
   id="g48"
   style="fill:none;stroke:#000000;stroke-opacity:1;stroke-width:4;stroke-miterlimit:4;stroke-dasharray:none">
</g>
<g
   id="g50"
   style="fill:none;stroke:#000000;stroke-opacity:1;stroke-width:4;stroke-miterlimit:4;stroke-dasharray:none">
</g>
<g
   id="g52"
   style="fill:none;stroke:#000000;stroke-opacity:1;stroke-width:4;stroke-miterlimit:4;stroke-dasharray:none">
</g>
<g
   id="g54"
   style="fill:none;stroke:#000000;stroke-opacity:1;stroke-width:4;stroke-miterlimit:4;stroke-dasharray:none">
</g>
<g
   id="g56"
   style="fill:none;stroke:#000000;stroke-opacity:1;stroke-width:4;stroke-miterlimit:4;stroke-dasharray:none">
</g>
<g
   id="g58"
   style="fill:none;stroke:#000000;stroke-opacity:1;stroke-width:4;stroke-miterlimit:4;stroke-dasharray:none">
</g>
<g
   id="g60"
   style="fill:none;stroke:#000000;stroke-opacity:1;stroke-width:4;stroke-miterlimit:4;stroke-dasharray:none">
</g>
<g
   id="g62"
   style="fill:none;stroke:#000000;stroke-opacity:1;stroke-width:4;stroke-miterlimit:4;stroke-dasharray:none">
</g>
<g
   id="g64"
   style="fill:none;stroke:#000000;stroke-opacity:1;stroke-width:4;stroke-miterlimit:4;stroke-dasharray:none">
</g>
<g
   id="g66"
   style="fill:none;stroke:#000000;stroke-opacity:1;stroke-width:4;stroke-miterlimit:4;stroke-dasharray:none">
</g>
<g
   id="g68"
   style="fill:none;stroke:#000000;stroke-opacity:1;stroke-width:4;stroke-miterlimit:4;stroke-dasharray:none">
</g>
<g
   id="g70"
   style="fill:none;stroke:#000000;stroke-opacity:1;stroke-width:4;stroke-miterlimit:4;stroke-dasharray:none">
</g>
<g
   id="g72"
   style="fill:none;stroke:#000000;stroke-opacity:1;stroke-width:4;stroke-miterlimit:4;stroke-dasharray:none">
</g>
</svg>