<?xml version="1.0" encoding="UTF-8" standalone="no"?>
<!-- Generator: Adobe Illustrator 19.0.0, SVG Export Plug-In . SVG Version: 6.00 Build 0)  -->

<svg
   xmlns:dc="http://purl.org/dc/elements/1.1/"
   xmlns:cc="http://creativecommons.org/ns#"
   xmlns:rdf="http://www.w3.org/1999/02/22-rdf-syntax-ns#"
   xmlns:svg="http://www.w3.org/2000/svg"
   xmlns="http://www.w3.org/2000/svg"
   xmlns:sodipodi="http://sodipodi.sourceforge.net/DTD/sodipodi-0.dtd"
   xmlns:inkscape="http://www.inkscape.org/namespaces/inkscape"
   version="1.1"
   id="Capa_1"
   x="0px"
   y="0px"
   viewBox="0 0 315.76179 356.87305"
   xml:space="preserve"
   sodipodi:docname="stage.svg"
   inkscape:version="0.92.3 (2405546, 2018-03-11)"
   width="315.76178"
   height="356.87305"><metadata
   id="metadata79"><rdf:RDF><cc:Work
       rdf:about=""><dc:format>image/svg+xml</dc:format><dc:type
         rdf:resource="http://purl.org/dc/dcmitype/StillImage" /><dc:title></dc:title></cc:Work></rdf:RDF></metadata><defs
   id="defs77" /><sodipodi:namedview
   pagecolor="#ffffff"
   bordercolor="#666666"
   borderopacity="1"
   objecttolerance="10"
   gridtolerance="10"
   guidetolerance="10"
   inkscape:pageopacity="0"
   inkscape:pageshadow="2"
   inkscape:window-width="1280"
   inkscape:window-height="739"
   id="namedview75"
   showgrid="false"
   inkscape:zoom="0.45254834"
   inkscape:cx="370.12617"
   inkscape:cy="219.1002"
   inkscape:window-x="0"
   inkscape:window-y="0"
   inkscape:window-maximized="1"
   inkscape:current-layer="Capa_1"
   fit-margin-top="0"
   fit-margin-left="0"
   fit-margin-right="0"
   fit-margin-bottom="0" />







<g
   id="g44"
   style="fill:none;stroke:#000000;stroke-width:4;stroke-miterlimit:4;stroke-dasharray:none;stroke-opacity:1"
   transform="translate(-29.553697,-5.0081527)">
</g>
<g
   id="g46"
   style="fill:none;stroke:#000000;stroke-width:4;stroke-miterlimit:4;stroke-dasharray:none;stroke-opacity:1"
   transform="translate(-29.553697,-5.0081527)">
</g>
<g
   id="g48"
   style="fill:none;stroke:#000000;stroke-width:4;stroke-miterlimit:4;stroke-dasharray:none;stroke-opacity:1"
   transform="translate(-29.553697,-5.0081527)">
</g>
<g
   id="g50"
   style="fill:none;stroke:#000000;stroke-width:4;stroke-miterlimit:4;stroke-dasharray:none;stroke-opacity:1"
   transform="translate(-29.553697,-5.0081527)">
</g>
<g
   id="g52"
   style="fill:none;stroke:#000000;stroke-width:4;stroke-miterlimit:4;stroke-dasharray:none;stroke-opacity:1"
   transform="translate(-29.553697,-5.0081527)">
</g>
<g
   id="g54"
   style="fill:none;stroke:#000000;stroke-width:4;stroke-miterlimit:4;stroke-dasharray:none;stroke-opacity:1"
   transform="translate(-29.553697,-5.0081527)">
</g>
<g
   id="g56"
   style="fill:none;stroke:#000000;stroke-width:4;stroke-miterlimit:4;stroke-dasharray:none;stroke-opacity:1"
   transform="translate(-29.553697,-5.0081527)">
</g>
<g
   id="g58"
   style="fill:none;stroke:#000000;stroke-width:4;stroke-miterlimit:4;stroke-dasharray:none;stroke-opacity:1"
   transform="translate(-29.553697,-5.0081527)">
</g>
<g
   id="g60"
   style="fill:none;stroke:#000000;stroke-width:4;stroke-miterlimit:4;stroke-dasharray:none;stroke-opacity:1"
   transform="translate(-29.553697,-5.0081527)">
</g>
<g
   id="g62"
   style="fill:none;stroke:#000000;stroke-width:4;stroke-miterlimit:4;stroke-dasharray:none;stroke-opacity:1"
   transform="translate(-29.553697,-5.0081527)">
</g>
<g
   id="g64"
   style="fill:none;stroke:#000000;stroke-width:4;stroke-miterlimit:4;stroke-dasharray:none;stroke-opacity:1"
   transform="translate(-29.553697,-5.0081527)">
</g>
<g
   id="g66"
   style="fill:none;stroke:#000000;stroke-width:4;stroke-miterlimit:4;stroke-dasharray:none;stroke-opacity:1"
   transform="translate(-29.553697,-5.0081527)">
</g>
<g
   id="g68"
   style="fill:none;stroke:#000000;stroke-width:4;stroke-miterlimit:4;stroke-dasharray:none;stroke-opacity:1"
   transform="translate(-29.553697,-5.0081527)">
</g>
<g
   id="g70"
   style="fill:none;stroke:#000000;stroke-width:4;stroke-miterlimit:4;stroke-dasharray:none;stroke-opacity:1"
   transform="translate(-29.553697,-5.0081527)">
</g>
<g
   id="g72"
   style="fill:none;stroke:#000000;stroke-width:4;stroke-miterlimit:4;stroke-dasharray:none;stroke-opacity:1"
   transform="translate(-29.553697,-5.0081527)">
</g>
<path
   style="fill:#2a3d75;fill-opacity:1;stroke-width:2.18940067"
   d="m 9.842112,344.06039 v -12.81191 l 18.06256,-1.40608 c 23.63167,-1.83962 231.575488,-1.8475 257.465608,-0.009 l 20.04094,1.42256 v 12.80854 12.80856 H 157.62667 9.842112 v -12.81164 z m 12.66756,-28.79917 c -0.53121,-3.61937 -0.47882,-7.06767 0.11641,-7.66291 0.59523,-0.59523 62.002321,-1.08224 136.460188,-1.08224 h 135.37795 v 7.6629 7.6629 H 158.96987 23.475512 Z M 245.75005,294.05985 c -3.55114,-0.928 -3.83145,-6.27513 -3.83145,-73.09093 v -72.08968 h 20.79931 20.79931 v 71.96375 71.96376 l -8.21026,1.35705 c -9.06983,1.49915 -23.61824,1.44798 -29.55691,-0.10399 z M 33.925522,221.12945 v -72.25021 h 20.79931 20.79931 v 72.25021 72.25022 h -20.79931 -20.79931 z m 102.901838,0 v -72.25021 h 21.89401 21.89401 v 72.25021 72.25022 H 158.72137 136.82736 Z M 22.458712,133.08871 c -0.48658,-1.45976 -0.45383,-4.90806 0.0728,-7.6629 l 0.9575,-5.00878 H 158.97662 294.46424 v 7.6629 7.6629 H 158.90382 c -104.251228,0 -135.764728,-0.61299 -136.445108,-2.65412 z M 0.179582,109.77709 c -0.64967,-1.05119 0.51971,-3.43229 2.59861,-5.29133 C 10.878592,97.242045 155.21063,0 157.86177,0 c 1.54731,0 17.89109,10.28035 36.31951,22.84521 18.42842,12.56486 53.51336,36.28803 77.96651,52.71816 24.45318,16.43012 44.07575,31.02684 43.60573,32.43716 -1.03671,3.11072 -313.661668,4.87067 -315.573938,1.77656 z"
   id="path963"
   inkscape:connector-curvature="0"
   sodipodi:nodetypes="ccsccccccccccscccccccscccccccccccccccccccccccccccccccccscssssscs" /></svg>