<?xml version="1.0" encoding="UTF-8" standalone="no"?>
<!-- Generator: Adobe Illustrator 16.0.0, SVG Export Plug-In . SVG Version: 6.00 Build 0)  -->

<svg
   xmlns:dc="http://purl.org/dc/elements/1.1/"
   xmlns:cc="http://creativecommons.org/ns#"
   xmlns:rdf="http://www.w3.org/1999/02/22-rdf-syntax-ns#"
   xmlns:svg="http://www.w3.org/2000/svg"
   xmlns="http://www.w3.org/2000/svg"
   xmlns:sodipodi="http://sodipodi.sourceforge.net/DTD/sodipodi-0.dtd"
   xmlns:inkscape="http://www.inkscape.org/namespaces/inkscape"
   version="1.1"
   id="Capa_1"
   x="0px"
   y="0px"
   width="481.291px"
   height="481.291px"
   viewBox="0 0 481.291 481.291"
   style="enable-background:new 0 0 481.291 481.291;"
   xml:space="preserve"
   sodipodi:docname="why2.svg"
   inkscape:version="0.92.3 (2405546, 2018-03-11)"><metadata
   id="metadata46"><rdf:RDF><cc:Work
       rdf:about=""><dc:format>image/svg+xml</dc:format><dc:type
         rdf:resource="http://purl.org/dc/dcmitype/StillImage" /></cc:Work></rdf:RDF></metadata><defs
   id="defs44">
	

		
	
			
			
		</defs><sodipodi:namedview
   pagecolor="#ffffff"
   bordercolor="#666666"
   borderopacity="1"
   objecttolerance="10"
   gridtolerance="10"
   guidetolerance="10"
   inkscape:pageopacity="0"
   inkscape:pageshadow="2"
   inkscape:window-width="1280"
   inkscape:window-height="743"
   id="namedview42"
   showgrid="false"
   inkscape:zoom="0.49034785"
   inkscape:cx="240.64549"
   inkscape:cy="240.64549"
   inkscape:window-x="0"
   inkscape:window-y="0"
   inkscape:window-maximized="1"
   inkscape:current-layer="Capa_1" />
<path
   inkscape:connector-curvature="0"
   style="fill:none;stroke:#000000;stroke-width:4;stroke-miterlimit:4;stroke-dasharray:none;stroke-opacity:1"
   id="path2"
   d="m 138.814,146.22 c 3.12,40.976 19.417,23.314 22.779,41.27 5.59,29.848 32.016,51.436 48.466,58.893 9.597,4.348 19.48,6.53 29.871,6.704 v 0.009 c 0.036,0 0.072,-0.004 0.108,-0.004 0.036,0 0.072,0.004 0.108,0.004 v -0.009 c 10.39,-0.174 20.272,-2.355 29.871,-6.704 16.45,-7.457 42.876,-29.045 48.466,-58.893 3.362,-17.955 19.659,-0.294 22.779,-41.27 0,-16.33 -8.898,-20.394 -8.898,-20.394 0,0 4.523,-24.171 6.295,-42.77 C 340.854,59.877 325.129,0 241.25,0 c -0.367,0 -0.707,0.02 -1.065,0.024 -0.013,0 -0.025,0 -0.038,-0.001 V 0.019 c -0.036,0.001 -0.072,0.002 -0.108,0.002 -0.036,0 -0.072,-0.001 -0.108,-0.002 v 0.005 c -0.013,0.001 -0.025,0.001 -0.038,0.001 -0.358,-0.005 -0.698,-0.024 -1.065,-0.024 -83.878,0 -99.604,59.877 -97.409,83.056 1.771,18.599 6.295,42.77 6.295,42.77 0,0 -8.9,4.063 -8.9,20.393 z" /><path
   inkscape:connector-curvature="0"
   style="fill:#2a3d75;stroke:#000000;stroke-width:4;stroke-miterlimit:4;stroke-dasharray:none;stroke-opacity:1;fill-opacity:1"
   id="path4"
   d="m 430.313,347.371 c -42.308,-21.523 -103.63,-48.406 -106.573,-49.355 -0.033,-0.012 -0.058,-0.014 -0.09,-0.024 -1.721,-0.613 -3.571,-0.953 -5.504,-0.953 -7.188,0 -13.285,4.604 -15.547,11.021 -0.012,-0.008 -0.024,-0.013 -0.036,-0.021 -10.92,26.315 -30.979,73.223 -43.434,95.842 l -3,-63.413 c 0,0 18.705,-39.699 20.752,-43.336 4.82,-8.525 0.479,-15.783 -8.557,-15.783 -4.482,0 -15.695,0 -26.926,0 -0.013,0 -0.025,0 -0.038,0 -0.072,0 -0.144,0 -0.216,0 -0.013,0 -0.025,0 -0.038,0 -0.154,0 -0.308,0 -0.462,0 -0.154,0 -0.308,0 -0.462,0 -0.013,0 -0.025,0 -0.038,0 -0.072,0 -0.144,0 -0.216,0 -0.013,0 -0.025,0 -0.038,0 -11.23,0 -22.442,0 -26.926,0 -9.036,0 -13.376,7.258 -8.557,15.783 2.048,3.637 20.752,43.336 20.752,43.336 l -2.999,63.413 c -12.455,-22.619 -32.514,-69.524 -43.434,-95.842 -0.012,0.008 -0.024,0.013 -0.036,0.021 -2.262,-6.414 -8.359,-11.021 -15.547,-11.021 -1.933,0 -3.783,0.34 -5.504,0.953 -0.032,0.012 -0.057,0.015 -0.09,0.024 -2.942,0.949 -64.265,27.832 -106.573,49.355 -19,9.666 -30.467,21.688 -30.467,34.34 0,41.826 0,99.58 0,99.58 h 219.227 0.191 0.105 0.006 0.107 0.191 0.309 0.309 0.191 0.105 0.006 0.105 0.191 219.228 c 0,0 0,-57.754 0,-99.58 -10e-4,-12.652 -11.467,-24.674 -30.467,-34.34 z" />
<g
   id="g11"
   style="fill:none;stroke:#000000;stroke-opacity:1;stroke-width:4;stroke-miterlimit:4;stroke-dasharray:none">
</g>
<g
   id="g13"
   style="fill:none;stroke:#000000;stroke-opacity:1;stroke-width:4;stroke-miterlimit:4;stroke-dasharray:none">
</g>
<g
   id="g15"
   style="fill:none;stroke:#000000;stroke-opacity:1;stroke-width:4;stroke-miterlimit:4;stroke-dasharray:none">
</g>
<g
   id="g17"
   style="fill:none;stroke:#000000;stroke-opacity:1;stroke-width:4;stroke-miterlimit:4;stroke-dasharray:none">
</g>
<g
   id="g19"
   style="fill:none;stroke:#000000;stroke-opacity:1;stroke-width:4;stroke-miterlimit:4;stroke-dasharray:none">
</g>
<g
   id="g21"
   style="fill:none;stroke:#000000;stroke-opacity:1;stroke-width:4;stroke-miterlimit:4;stroke-dasharray:none">
</g>
<g
   id="g23"
   style="fill:none;stroke:#000000;stroke-opacity:1;stroke-width:4;stroke-miterlimit:4;stroke-dasharray:none">
</g>
<g
   id="g25"
   style="fill:none;stroke:#000000;stroke-opacity:1;stroke-width:4;stroke-miterlimit:4;stroke-dasharray:none">
</g>
<g
   id="g27"
   style="fill:none;stroke:#000000;stroke-opacity:1;stroke-width:4;stroke-miterlimit:4;stroke-dasharray:none">
</g>
<g
   id="g29"
   style="fill:none;stroke:#000000;stroke-opacity:1;stroke-width:4;stroke-miterlimit:4;stroke-dasharray:none">
</g>
<g
   id="g31"
   style="fill:none;stroke:#000000;stroke-opacity:1;stroke-width:4;stroke-miterlimit:4;stroke-dasharray:none">
</g>
<g
   id="g33"
   style="fill:none;stroke:#000000;stroke-opacity:1;stroke-width:4;stroke-miterlimit:4;stroke-dasharray:none">
</g>
<g
   id="g35"
   style="fill:none;stroke:#000000;stroke-opacity:1;stroke-width:4;stroke-miterlimit:4;stroke-dasharray:none">
</g>
<g
   id="g37"
   style="fill:none;stroke:#000000;stroke-opacity:1;stroke-width:4;stroke-miterlimit:4;stroke-dasharray:none">
</g>
<g
   id="g39"
   style="fill:none;stroke:#000000;stroke-opacity:1;stroke-width:4;stroke-miterlimit:4;stroke-dasharray:none">
</g>
</svg>