<?xml version="1.0" encoding="UTF-8" standalone="no"?>
<!-- Generator: Adobe Illustrator 19.0.0, SVG Export Plug-In . SVG Version: 6.00 Build 0)  -->

<svg
   xmlns:dc="http://purl.org/dc/elements/1.1/"
   xmlns:cc="http://creativecommons.org/ns#"
   xmlns:rdf="http://www.w3.org/1999/02/22-rdf-syntax-ns#"
   xmlns:svg="http://www.w3.org/2000/svg"
   xmlns="http://www.w3.org/2000/svg"
   xmlns:sodipodi="http://sodipodi.sourceforge.net/DTD/sodipodi-0.dtd"
   xmlns:inkscape="http://www.inkscape.org/namespaces/inkscape"
   version="1.1"
   id="Layer_1"
   x="0px"
   y="0px"
   viewBox="0 0 512 512"
   style="enable-background:new 0 0 512 512;"
   xml:space="preserve"
   sodipodi:docname="why4.svg"
   inkscape:version="0.92.3 (2405546, 2018-03-11)"><metadata
   id="metadata61"><rdf:RDF><cc:Work
       rdf:about=""><dc:format>image/svg+xml</dc:format><dc:type
         rdf:resource="http://purl.org/dc/dcmitype/StillImage" /></cc:Work></rdf:RDF></metadata><defs
   id="defs59" /><sodipodi:namedview
   pagecolor="#ffffff"
   bordercolor="#666666"
   borderopacity="1"
   objecttolerance="10"
   gridtolerance="10"
   guidetolerance="10"
   inkscape:pageopacity="0"
   inkscape:pageshadow="2"
   inkscape:window-width="1280"
   inkscape:window-height="743"
   id="namedview57"
   showgrid="false"
   inkscape:zoom="0.4609375"
   inkscape:cx="256"
   inkscape:cy="256"
   inkscape:window-x="0"
   inkscape:window-y="0"
   inkscape:window-maximized="1"
   inkscape:current-layer="Layer_1" />
<g
   id="g6"
   style="fill:none;stroke:#000000;stroke-opacity:1;stroke-width:4;stroke-miterlimit:4;stroke-dasharray:none">
	<g
   id="g4"
   style="fill:none;stroke:#000000;stroke-opacity:1;stroke-width:4;stroke-miterlimit:4;stroke-dasharray:none">
		<path
   d="M123.733,130.133c-17.067-17.067-89.6-21.333-113.067-23.467c-2.133,0-4.267,0-6.4,2.133C2.133,110.933,0,115.2,0,117.333    v192C0,315.733,4.267,320,10.667,320h64c4.267,0,8.533-2.133,10.667-6.4c0-6.4,38.4-119.467,42.667-174.933    C128,136.533,128,132.267,123.733,130.133z"
   id="path2"
   style="fill:none;stroke:#000000;stroke-opacity:1;stroke-width:4;stroke-miterlimit:4;stroke-dasharray:none" />
	</g>
</g>
<g
   id="g12"
   style="fill:none;stroke:#000000;stroke-opacity:1;stroke-width:4;stroke-miterlimit:4;stroke-dasharray:none">
	<g
   id="g10"
   style="fill:none;stroke:#000000;stroke-opacity:1;stroke-width:4;stroke-miterlimit:4;stroke-dasharray:none">
		<path
   d="M352,181.333c-21.333-6.4-40.533-14.933-57.6-21.333c-38.4-17.067-55.467-8.533-89.6,25.6    c-14.933,14.933-25.6,36.267-23.467,44.8c0,2.133,0,2.133,4.267,4.267c10.667,4.267,25.6,6.4,40.533-17.067    c2.133-2.133,4.267-4.267,8.533-4.267c6.4,0,8.533-2.133,14.933-4.267c4.267-2.133,8.533-4.267,14.933-6.4    c2.133,0,2.133,0,4.267,0c2.133,0,6.4,2.133,8.533,2.133C288,215.467,307.2,230.4,326.4,247.467    c29.867,23.467,59.733,49.067,74.667,68.267h2.133C388.267,273.067,362.667,200.533,352,181.333z"
   id="path8"
   style="fill:none;stroke:#000000;stroke-opacity:1;stroke-width:4;stroke-miterlimit:4;stroke-dasharray:none" />
	</g>
</g>
<g
   id="g18"
   style="fill:#2a3d75;stroke:#000000;stroke-opacity:1;stroke-width:4;stroke-miterlimit:4;stroke-dasharray:none;fill-opacity:1">
	<g
   id="g16"
   style="fill:#2a3d75;stroke:#000000;stroke-opacity:1;stroke-width:4;stroke-miterlimit:4;stroke-dasharray:none;fill-opacity:1">
		<path
   d="M501.333,128c-83.2,0-130.133,21.333-132.267,21.333c-2.133,2.133-4.267,4.267-6.4,6.4c0,2.133,0,6.4,2.133,8.533    c12.8,21.333,55.467,138.667,61.867,168.533c2.133,4.267,6.4,8.533,10.667,8.533h64c6.4,0,10.667-4.267,10.667-10.667v-192    C512,132.267,507.733,128,501.333,128z"
   id="path14"
   style="fill:#2a3d75;stroke:#000000;stroke-opacity:1;stroke-width:4;stroke-miterlimit:4;stroke-dasharray:none;fill-opacity:1" />
	</g>
</g>
<g
   id="g24"
   style="fill:none;stroke:#000000;stroke-opacity:1;stroke-width:4;stroke-miterlimit:4;stroke-dasharray:none">
	<g
   id="g22"
   style="fill:none;stroke:#000000;stroke-opacity:1;stroke-width:4;stroke-miterlimit:4;stroke-dasharray:none">
		<path
   d="M386.133,337.067c-8.533-19.2-44.8-46.933-76.8-72.533C292.267,249.6,275.2,236.8,262.4,226.133    c-2.133,2.133-6.4,2.133-6.4,4.267c-6.4,2.133-8.533,4.267-17.067,4.267C221.867,256,200.533,264.533,177.067,256    c-10.667-2.133-17.067-10.667-19.2-19.2c-4.267-21.333,14.933-51.2,29.867-66.133h-42.667c-8.533,42.667-23.467,98.133-34.133,128    c8.533,8.533,17.067,19.2,23.467,23.467c40.533,34.133,87.467,68.267,96,74.667c6.4,4.267,19.2,8.533,25.6,8.533    c2.133,0,4.267,0,6.4,0L228.267,371.2c-4.267-4.267-4.267-10.667,0-14.933s10.667-4.267,14.933,0l42.667,42.667    c4.267,4.267,8.533,2.133,12.8,2.133c6.4-2.133,8.533-6.4,10.667-12.8L260.267,339.2c-4.267-4.267-4.267-10.667,0-14.933    s10.667-4.267,14.933,0l53.333,53.333c2.133,2.133,10.667,2.133,17.067,0c2.133-2.133,6.4-4.267,8.533-8.533L294.4,309.333    c-4.267-4.267-4.267-10.667,0-14.933s10.667-4.267,14.933,0l61.867,61.867c4.267,2.133,8.533,0,12.8-2.133    C386.133,352,390.4,345.6,386.133,337.067z"
   id="path20"
   style="fill:none;stroke:#000000;stroke-opacity:1;stroke-width:4;stroke-miterlimit:4;stroke-dasharray:none" />
	</g>
</g>
<g
   id="g26"
   style="fill:none;stroke:#000000;stroke-opacity:1;stroke-width:4;stroke-miterlimit:4;stroke-dasharray:none">
</g>
<g
   id="g28"
   style="fill:none;stroke:#000000;stroke-opacity:1;stroke-width:4;stroke-miterlimit:4;stroke-dasharray:none">
</g>
<g
   id="g30"
   style="fill:none;stroke:#000000;stroke-opacity:1;stroke-width:4;stroke-miterlimit:4;stroke-dasharray:none">
</g>
<g
   id="g32"
   style="fill:none;stroke:#000000;stroke-opacity:1;stroke-width:4;stroke-miterlimit:4;stroke-dasharray:none">
</g>
<g
   id="g34"
   style="fill:none;stroke:#000000;stroke-opacity:1;stroke-width:4;stroke-miterlimit:4;stroke-dasharray:none">
</g>
<g
   id="g36"
   style="fill:none;stroke:#000000;stroke-opacity:1;stroke-width:4;stroke-miterlimit:4;stroke-dasharray:none">
</g>
<g
   id="g38"
   style="fill:none;stroke:#000000;stroke-opacity:1;stroke-width:4;stroke-miterlimit:4;stroke-dasharray:none">
</g>
<g
   id="g40"
   style="fill:none;stroke:#000000;stroke-opacity:1;stroke-width:4;stroke-miterlimit:4;stroke-dasharray:none">
</g>
<g
   id="g42"
   style="fill:none;stroke:#000000;stroke-opacity:1;stroke-width:4;stroke-miterlimit:4;stroke-dasharray:none">
</g>
<g
   id="g44"
   style="fill:none;stroke:#000000;stroke-opacity:1;stroke-width:4;stroke-miterlimit:4;stroke-dasharray:none">
</g>
<g
   id="g46"
   style="fill:none;stroke:#000000;stroke-opacity:1;stroke-width:4;stroke-miterlimit:4;stroke-dasharray:none">
</g>
<g
   id="g48"
   style="fill:none;stroke:#000000;stroke-opacity:1;stroke-width:4;stroke-miterlimit:4;stroke-dasharray:none">
</g>
<g
   id="g50"
   style="fill:none;stroke:#000000;stroke-opacity:1;stroke-width:4;stroke-miterlimit:4;stroke-dasharray:none">
</g>
<g
   id="g52"
   style="fill:none;stroke:#000000;stroke-opacity:1;stroke-width:4;stroke-miterlimit:4;stroke-dasharray:none">
</g>
<g
   id="g54"
   style="fill:none;stroke:#000000;stroke-opacity:1;stroke-width:4;stroke-miterlimit:4;stroke-dasharray:none">
</g>
</svg>