<?xml version="1.0" encoding="UTF-8" standalone="no"?>
<!-- Generator: Adobe Illustrator 18.1.1, SVG Export Plug-In . SVG Version: 6.00 Build 0)  -->

<svg
   xmlns:dc="http://purl.org/dc/elements/1.1/"
   xmlns:cc="http://creativecommons.org/ns#"
   xmlns:rdf="http://www.w3.org/1999/02/22-rdf-syntax-ns#"
   xmlns:svg="http://www.w3.org/2000/svg"
   xmlns="http://www.w3.org/2000/svg"
   xmlns:sodipodi="http://sodipodi.sourceforge.net/DTD/sodipodi-0.dtd"
   xmlns:inkscape="http://www.inkscape.org/namespaces/inkscape"
   version="1.1"
   id="Capa_1"
   x="0px"
   y="0px"
   viewBox="0 0 110 110"
   xml:space="preserve"
   sodipodi:docname="face3.svg"
   width="110"
   height="110"
   inkscape:version="0.92.3 (2405546, 2018-03-11)"><metadata
   id="metadata43"><rdf:RDF><cc:Work
       rdf:about=""><dc:format>image/svg+xml</dc:format><dc:type
         rdf:resource="http://purl.org/dc/dcmitype/StillImage" /><dc:title></dc:title></cc:Work></rdf:RDF></metadata><defs
   id="defs41" /><sodipodi:namedview
   pagecolor="#ffffff"
   bordercolor="#666666"
   borderopacity="1"
   objecttolerance="10"
   gridtolerance="10"
   guidetolerance="10"
   inkscape:pageopacity="0"
   inkscape:pageshadow="2"
   inkscape:window-width="1280"
   inkscape:window-height="743"
   id="namedview39"
   showgrid="false"
   fit-margin-top="10"
   fit-margin-left="10"
   fit-margin-right="10"
   fit-margin-bottom="10"
   inkscape:zoom="2.6222222"
   inkscape:cx="39"
   inkscape:cy="54.999902"
   inkscape:window-x="0"
   inkscape:window-y="0"
   inkscape:window-maximized="1"
   inkscape:current-layer="Capa_1" />
<g
   id="g6"
   transform="translate(9.6355932,9.6187361)">
	<g
   id="g4">
		<path
   style="fill:#030104"
   d="M 65.449,6.169 C 59.748,2.057 52.588,0 43.971,0 37.412,0 31.881,1.449 27.383,4.34 20.25,8.871 16.457,16.562 16,27.412 h 16.531 c 0,-3.158 0.922,-6.203 2.766,-9.137 1.846,-2.932 4.975,-4.396 9.389,-4.396 4.488,0 7.58,1.19 9.271,3.568 1.693,2.381 2.539,5.018 2.539,7.91 0,2.513 -1.262,4.816 -2.781,6.91 -0.836,1.22 -1.938,2.342 -3.307,3.369 0,0 -8.965,5.75 -12.9,10.368 -2.283,2.681 -2.488,6.692 -2.689,12.449 -0.014,0.409 0.143,1.255 1.576,1.255 1.433,0 11.582,0 12.857,0 1.275,0 1.541,-0.951 1.559,-1.362 0.09,-2.098 0.326,-3.167 0.707,-4.377 0.723,-2.286 2.688,-4.283 4.893,-5.997 l 4.551,-3.141 c 4.107,-3.199 7.385,-5.826 8.83,-7.883 C 72.264,33.562 74,29.393 74,24.443 74,16.373 71.148,10.281 65.449,6.169 Z M 43.705,69.617 c -5.697,-0.17 -10.398,3.771 -10.578,9.951 -0.178,6.178 4.293,10.258 9.99,10.426 C 49.066,90.171 53.64,86.357 53.818,80.18 53.996,74 49.654,69.793 43.705,69.617 Z"
   id="path2"
   inkscape:connector-curvature="0" />
	</g>
</g>
<g
   id="g8"
   transform="translate(-6,10.000092)">
</g>
<g
   id="g10"
   transform="translate(-6,10.000092)">
</g>
<g
   id="g12"
   transform="translate(-6,10.000092)">
</g>
<g
   id="g14"
   transform="translate(-6,10.000092)">
</g>
<g
   id="g16"
   transform="translate(-6,10.000092)">
</g>
<g
   id="g18"
   transform="translate(-6,10.000092)">
</g>
<g
   id="g20"
   transform="translate(-6,10.000092)">
</g>
<g
   id="g22"
   transform="translate(-6,10.000092)">
</g>
<g
   id="g24"
   transform="translate(-6,10.000092)">
</g>
<g
   id="g26"
   transform="translate(-6,10.000092)">
</g>
<g
   id="g28"
   transform="translate(-6,10.000092)">
</g>
<g
   id="g30"
   transform="translate(-6,10.000092)">
</g>
<g
   id="g32"
   transform="translate(-6,10.000092)">
</g>
<g
   id="g34"
   transform="translate(-6,10.000092)">
</g>
<g
   id="g36"
   transform="translate(-6,10.000092)">
</g>
</svg>